<svg width="405" height="405" viewBox="0 0 405 405" fill="none" xmlns="http://www.w3.org/2000/svg">
<path fill-rule="evenodd" clip-rule="evenodd" d="M203 403C313.457 403 403 313.457 403 203C403 198.753 402.868 194.537 402.607 190.355C400.23 190.779 397.784 191 395.286 191C372.405 191 353.857 172.452 353.857 149.571C353.857 149.237 353.861 148.904 353.869 148.571C334.669 144.961 320.143 128.105 320.143 107.857C320.143 103.67 320.764 99.6271 321.92 95.8169C306.195 89.9368 295 74.7758 295 57C295 46.9779 298.559 37.7869 304.481 30.6219C274.732 13.0701 240.042 3 203 3C92.5431 3 3 92.5431 3 203C3 313.457 92.5431 403 203 403Z" fill="#997153"/>
<path d="M109.286 234.143C109.286 245.346 100.204 254.429 89 254.429C77.7965 254.429 60.7143 245.346 60.7143 234.143C60.7143 222.939 57.5108 207 68.7143 207C79.9178 207 109.286 222.939 109.286 234.143Z" fill="#4D341D"/>
<path d="M77.5715 148.143C77.5715 156.979 65.0343 160.143 56.1978 160.143C47.3612 160.143 40.1978 152.979 40.1978 144.143C40.1978 135.306 63.3612 126.143 72.1978 126.143C81.0343 126.143 77.5715 139.306 77.5715 148.143Z" fill="#4D341D"/>
<path d="M247 71C247 79.8366 242.694 82.4286 233.857 82.4286C225.021 82.4286 223.857 69.8366 223.857 61C223.857 52.1635 225.021 50.4286 233.857 50.4286C242.694 50.4286 247 62.1635 247 71Z" fill="#4D341D"/>
<path d="M255.286 335.571C255.286 344.408 237.837 347 229 347C220.163 347 219 334.408 219 325.571C219 316.735 233.306 315 242.143 315C250.979 315 255.286 326.735 255.286 335.571Z" fill="#4D341D"/>
<path d="M248.775 167.035C245.288 175.154 240.308 175.836 232.188 172.349C224.069 168.862 227.969 156.833 231.456 148.714C234.943 140.594 236.697 139.459 244.816 142.946C252.936 146.433 252.262 158.915 248.775 167.035Z" fill="#4D341D"/>
<path d="M355.302 231.631C353.959 234.758 352.237 235.105 349.512 233.935C346.787 232.765 348.342 228.154 349.685 225.027C351.029 221.9 351.651 221.44 354.376 222.61C357.101 223.78 356.645 228.503 355.302 231.631Z" fill="#4D341D"/>
<path d="M185.339 43.5251C182.03 44.3208 180.721 43.1491 180.028 40.2658C179.334 37.3825 183.959 35.869 187.268 35.0733C190.577 34.2776 191.318 34.501 192.011 37.3842C192.705 40.2675 188.648 42.7293 185.339 43.5251Z" fill="#4D341D"/>
<path d="M190.238 114.689C186.929 115.485 185.621 114.313 184.927 111.43C184.234 108.547 188.858 107.033 192.168 106.238C195.477 105.442 196.218 105.665 196.911 108.549C197.604 111.432 193.548 113.894 190.238 114.689Z" fill="#4D341D"/>
<path d="M182.238 314.118C178.929 314.914 177.621 313.742 176.927 310.859C176.234 307.975 180.858 306.462 184.168 305.666C187.477 304.87 188.218 305.094 188.911 307.977C189.604 310.86 185.548 313.322 182.238 314.118Z" fill="#4D341D"/>
<path d="M101.667 186.689C98.3579 187.485 97.0494 186.313 96.3561 183.43C95.6628 180.547 100.287 179.033 103.596 178.238C106.905 177.442 107.646 177.665 108.34 180.549C109.033 183.432 104.976 185.894 101.667 186.689Z" fill="#4D341D"/>
<path d="M168.775 255.286C165.288 263.405 160.308 262.122 152.188 258.635C144.069 255.148 147.969 243.119 151.456 234.999C154.943 226.88 160.655 231.512 168.775 234.999C176.894 238.486 172.262 247.166 168.775 255.286Z" fill="#4D341D"/>
<path d="M353.286 272.143C353.286 280.979 337.963 293 329.126 293C320.29 293 309.857 280.979 309.857 272.143C309.857 263.306 323.306 256.143 332.143 256.143C340.979 256.143 353.286 263.306 353.286 272.143Z" fill="#4D341D"/>
<path d="M256.143 254.143C256.143 262.979 240.553 274.429 231.717 274.429C222.88 274.429 204.574 262.979 204.574 254.143C204.574 245.306 213.021 234.714 221.857 234.714C230.694 234.714 256.143 245.306 256.143 254.143Z" fill="#4D341D"/>
<path d="M168.143 163C168.143 171.837 164.694 181.286 155.857 181.286C147.021 181.286 143 168.979 143 160.143C143 151.306 147.021 147.857 155.857 147.857C164.694 147.857 168.143 154.163 168.143 163Z" fill="#4D341D"/>
<path d="M147.475 316.144C147.475 324.98 144.883 346.715 136.047 346.715C127.21 346.715 116.332 337.266 116.332 328.429C116.332 319.593 114.353 307.572 123.189 307.572C132.026 307.572 147.475 307.307 147.475 316.144Z" fill="#4D341D"/>
<path d="M147.572 78.1429C147.572 86.9794 140.408 89.2857 131.572 89.2857C122.735 89.2857 115.572 82.1223 115.572 73.2857C115.572 64.4492 130.449 65.5714 139.286 65.5714C148.122 65.5714 147.572 69.3063 147.572 78.1429Z" fill="#4D341D"/>
<path d="M325.857 207.617C325.857 216.454 318.694 218.76 309.857 218.76C301.021 218.76 293.857 211.597 293.857 202.76C293.857 193.924 308.735 195.046 317.571 195.046C326.408 195.046 325.857 198.781 325.857 207.617Z" fill="#4D341D"/>
<path fill-rule="evenodd" clip-rule="evenodd" d="M367.16 317.262C330.473 360.61 275.665 388.131 214.429 388.131C103.972 388.131 14.4286 298.588 14.4286 188.131C14.4286 145.643 27.6771 106.25 50.2684 73.8572C20.7803 108.7 3 153.767 3 202.988C3 313.445 92.5431 402.988 203 402.988C270.969 402.988 331.02 369.082 367.16 317.262Z" fill="#77563E"/>
</svg>
