<svg width="585" height="106" viewBox="0 0 585 106" fill="none" xmlns="http://www.w3.org/2000/svg">
<path d="M32.256 16.936C36.928 16.936 41.024 17.608 44.544 18.952C48.128 20.232 49.92 21.992 49.92 24.232C49.92 26.472 49.056 29.256 47.328 32.584C45.664 35.848 44.256 37.48 43.104 37.48C42.784 37.48 42.4 37.32 41.952 37C41.568 36.616 40.608 36.232 39.072 35.848C37.6 35.4 36.32 35.176 35.232 35.176C31.52 35.176 28.512 36.488 26.208 39.112C23.968 41.736 22.848 45.768 22.848 51.208C22.848 56.584 24 60.584 26.304 63.208C28.672 65.832 31.648 67.144 35.232 67.144C36.704 67.144 38.336 66.952 40.128 66.568C41.984 66.12 43.296 65.512 44.064 64.744C44.192 64.616 44.448 64.552 44.832 64.552C45.216 64.552 45.92 65.288 46.944 66.76C48.032 68.168 49.024 70.056 49.92 72.424C50.816 74.728 51.264 76.52 51.264 77.8C51.264 80.296 49.344 82.28 45.504 83.752C41.664 85.224 37.12 85.96 31.872 85.96C23.424 85.96 16.48 82.984 11.04 77.032C5.6 71.08 2.88 62.696 2.88 51.88C2.88 41 5.664 32.456 11.232 26.248C16.864 20.04 23.872 16.936 32.256 16.936ZM166.695 18.568C166.695 17.544 169.607 17.032 175.431 17.032C180.871 17.224 183.591 17.64 183.591 18.28V55.144L193.095 37.576C193.543 36.616 196.263 36.136 201.255 36.136C206.247 36.136 209.447 36.456 210.855 37.096L198.375 57.448L212.775 84.424C212.903 84.68 211.687 84.872 209.127 85C206.631 85.192 204.551 85.288 202.887 85.288C196.743 85.288 193.447 85 192.999 84.424L183.495 63.112V84.328C183.495 85.16 180.679 85.576 175.047 85.576C169.479 85.576 166.695 85.192 166.695 84.424V18.568ZM235.263 84.424C235.263 84.936 232.319 85.192 226.431 85.192C220.607 85.192 217.695 84.968 217.695 84.52V37.384C217.695 36.936 220.607 36.712 226.431 36.712C232.319 36.712 235.263 36.904 235.263 37.288V84.424ZM235.263 31.624C235.263 32.072 232.319 32.296 226.431 32.296C220.607 32.296 217.695 32.104 217.695 31.72V17.896C217.695 17.256 220.607 16.936 226.431 16.936C232.319 16.936 235.263 17.128 235.263 17.512V31.624ZM280.233 82.408C276.201 84.776 271.017 85.96 264.681 85.96C258.345 85.96 253.001 83.816 248.649 79.528C244.297 75.176 242.121 69.192 242.121 61.576C242.121 53.896 244.201 47.72 248.361 43.048C252.585 38.376 257.897 36.04 264.297 36.04C270.697 36.04 275.625 37.672 279.081 40.936C282.601 44.2 284.361 48.168 284.361 52.84C284.361 63.208 278.409 68.392 266.505 68.392H259.881C259.881 70.312 260.393 71.656 261.417 72.424C262.505 73.128 264.073 73.48 266.121 73.48C270.601 73.48 274.857 72.456 278.889 70.408C278.953 70.344 279.241 70.792 279.753 71.752C281.289 74.504 282.057 76.84 282.057 78.76C282.057 80.616 281.449 81.832 280.233 82.408ZM268.233 54.664C268.233 51.976 266.921 50.632 264.297 50.632C263.081 50.632 262.025 51.016 261.129 51.784C260.297 52.488 259.881 53.544 259.881 54.952V57.928H265.065C267.177 57.928 268.233 56.84 268.233 54.664ZM336.662 16.936C341.334 16.936 345.43 17.608 348.95 18.952C352.534 20.232 354.326 21.992 354.326 24.232C354.326 26.472 353.462 29.256 351.734 32.584C350.07 35.848 348.662 37.48 347.51 37.48C347.19 37.48 346.806 37.32 346.358 37C345.974 36.616 345.014 36.232 343.478 35.848C342.006 35.4 340.726 35.176 339.638 35.176C335.926 35.176 332.918 36.488 330.614 39.112C328.374 41.736 327.254 45.768 327.254 51.208C327.254 56.584 328.406 60.584 330.71 63.208C333.078 65.832 336.054 67.144 339.638 67.144C341.11 67.144 342.742 66.952 344.534 66.568C346.39 66.12 347.702 65.512 348.47 64.744C348.598 64.616 348.854 64.552 349.238 64.552C349.622 64.552 350.326 65.288 351.35 66.76C352.438 68.168 353.43 70.056 354.326 72.424C355.222 74.728 355.67 76.52 355.67 77.8C355.67 80.296 353.75 82.28 349.91 83.752C346.07 85.224 341.526 85.96 336.278 85.96C327.83 85.96 320.886 82.984 315.446 77.032C310.006 71.08 307.286 62.696 307.286 51.88C307.286 41 310.07 32.456 315.638 26.248C321.27 20.04 328.278 16.936 336.662 16.936ZM380.011 84.232C380.011 84.808 376.747 85.096 370.219 85.096C365.099 85.032 362.539 84.776 362.539 84.328V18.952C362.539 17.992 365.643 17.512 371.851 17.512C377.291 17.704 380.011 18.024 380.011 18.472V84.232ZM406.263 84.424C406.263 84.936 403.319 85.192 397.431 85.192C391.607 85.192 388.695 84.968 388.695 84.52V37.384C388.695 36.936 391.607 36.712 397.431 36.712C403.319 36.712 406.263 36.904 406.263 37.288V84.424ZM406.263 31.624C406.263 32.072 403.319 32.296 397.431 32.296C391.607 32.296 388.695 32.104 388.695 31.72V17.896C388.695 17.256 391.607 16.936 397.431 16.936C403.319 16.936 406.263 17.128 406.263 17.512V31.624ZM430.689 61.192C430.689 67.464 433.057 70.6 437.793 70.6C440.865 70.6 443.425 69.992 445.473 68.776C446.433 68.776 447.201 70.44 447.777 73.768C448.417 77.032 448.737 79.272 448.737 80.488C448.737 81.64 448.577 82.408 448.257 82.792C444.865 84.904 440.225 85.96 434.337 85.96C428.449 85.96 423.425 83.784 419.265 79.432C415.169 75.016 413.121 69.032 413.121 61.48C413.121 53.864 415.137 47.72 419.169 43.048C423.265 38.376 428.673 36.04 435.393 36.04C442.177 36.04 446.881 37.672 449.505 40.936C450.081 41.64 450.369 42.696 450.369 44.104C450.369 45.448 450.113 47.112 449.601 49.096C448.449 53.192 446.945 55.56 445.089 56.2C444.833 56.264 444.449 56.296 443.937 56.296C443.489 56.296 442.913 55.912 442.209 55.144C439.713 52.648 437.697 51.4 436.161 51.4C434.689 51.4 433.409 52.168 432.321 53.704C431.233 55.24 430.689 57.736 430.689 61.192ZM455.633 18.568C455.633 17.544 458.545 17.032 464.369 17.032C469.809 17.224 472.529 17.64 472.529 18.28V55.144L482.033 37.576C482.481 36.616 485.201 36.136 490.193 36.136C495.185 36.136 498.385 36.456 499.792 37.096L487.313 57.448L501.713 84.424C501.841 84.68 500.625 84.872 498.065 85C495.569 85.192 493.489 85.288 491.825 85.288C485.681 85.288 482.385 85 481.937 84.424L472.433 63.112V84.328C472.433 85.16 469.617 85.576 463.984 85.576C458.417 85.576 455.633 85.192 455.633 84.424V18.568ZM540.483 82.408C536.451 84.776 531.267 85.96 524.931 85.96C518.595 85.96 513.251 83.816 508.899 79.528C504.547 75.176 502.371 69.192 502.371 61.576C502.371 53.896 504.451 47.72 508.611 43.048C512.835 38.376 518.147 36.04 524.547 36.04C530.947 36.04 535.875 37.672 539.331 40.936C542.851 44.2 544.611 48.168 544.611 52.84C544.611 63.208 538.659 68.392 526.755 68.392H520.131C520.131 70.312 520.643 71.656 521.667 72.424C522.755 73.128 524.323 73.48 526.371 73.48C530.851 73.48 535.107 72.456 539.139 70.408C539.203 70.344 539.491 70.792 540.003 71.752C541.539 74.504 542.307 76.84 542.307 78.76C542.307 80.616 541.699 81.832 540.483 82.408ZM528.483 54.664C528.483 51.976 527.171 50.632 524.547 50.632C523.331 50.632 522.275 51.016 521.379 51.784C520.547 52.488 520.131 53.544 520.131 54.952V57.928H525.315C527.427 57.928 528.483 56.84 528.483 54.664ZM571.906 84.904C571.906 85.352 568.995 85.576 563.171 85.576C557.347 85.448 554.435 85.192 554.435 84.808V52.936H551.843C550.819 52.936 549.987 52.328 549.347 51.112C548.771 49.832 548.483 48.264 548.483 46.408C548.483 39.496 550.531 36.04 554.627 36.04C557.507 36.04 559.907 36.936 561.827 38.728C563.747 40.456 564.707 42.44 564.707 44.68C566.051 42.056 567.843 39.976 570.083 38.44C572.387 36.84 574.723 36.04 577.091 36.04C580.803 36.04 583.043 37 583.811 38.92C584.003 39.432 584.099 40.2 584.099 41.224C584.099 42.184 583.779 43.944 583.139 46.504C582.563 49.064 581.955 50.92 581.315 52.072C580.675 53.224 580.291 53.8 580.163 53.8C580.035 53.8 579.427 53.576 578.339 53.128C577.315 52.616 576.387 52.36 575.555 52.36C573.123 52.36 571.906 54.28 571.906 58.12V84.904Z" fill="#997153"/>
<rect x="213" y="14" width="27" height="22" fill="white"/>
<rect x="387" y="12" width="27" height="22" fill="white"/>
<circle cx="396.5" cy="23.5" r="11.5" fill="#997153"/>
<path d="M396 29.8614C396 31.0425 394.888 32 393.516 32C392.144 32 390.052 31.0425 390.052 29.8614C390.052 28.6804 389.66 27 391.032 27C392.404 27 396 28.6804 396 29.8614Z" fill="#4D341D"/>
<path d="M399 15.9286C399 16.757 398.256 17 396.728 17C395.201 17 395 15.8195 395 14.9911C395 14.1626 395.201 14 396.728 14C398.256 14 399 15.1001 399 15.9286Z" fill="#4D341D"/>
<path d="M403.959 21.3626C403.959 22.4211 402.806 21.8418 401.751 21.8418C400.697 21.8418 401.061 20.5045 401.061 19.446C401.061 18.3875 402.154 18 403.209 18C404.264 18 403.959 20.3041 403.959 21.3626Z" fill="#4D341D"/>
<path d="M404 28.3023C404 29.0216 402.942 30 402.331 30C401.721 30 401 29.0216 401 28.3023C401 27.5831 401.929 27 402.539 27C403.15 27 404 27.5831 404 28.3023Z" fill="#4D341D"/>
<path d="M400 23.9568C400 24.8468 398.488 26 397.632 26C396.775 26 395 24.8468 395 23.9568C395 23.0668 395.819 22 396.676 22C397.533 22 400 23.0668 400 23.9568Z" fill="#4D341D"/>
<path d="M393 18.812C393 19.8693 392.314 21 390.557 21C388.8 21 388 19.5275 388 18.4701C388 17.4127 388.8 17 390.557 17C392.314 17 393 17.7546 393 18.812Z" fill="#4D341D"/>
<circle cx="226.5" cy="23.5" r="11.5" fill="#997153"/>
<path d="M226 29.8614C226 31.0425 224.888 32 223.516 32C222.144 32 220.052 31.0425 220.052 29.8614C220.052 28.6804 219.66 27 221.032 27C222.404 27 226 28.6804 226 29.8614Z" fill="#4D341D"/>
<path d="M229 15.9286C229 16.757 228.256 17 226.728 17C225.201 17 225 15.8195 225 14.9911C225 14.1626 225.201 14 226.728 14C228.256 14 229 15.1001 229 15.9286Z" fill="#4D341D"/>
<path d="M233.959 21.3626C233.959 22.4211 232.806 21.8418 231.751 21.8418C230.697 21.8418 231.061 20.5045 231.061 19.446C231.061 18.3875 232.154 18 233.209 18C234.264 18 233.959 20.3041 233.959 21.3626Z" fill="#4D341D"/>
<path d="M234 28.3023C234 29.0216 232.942 30 232.331 30C231.721 30 231 29.0216 231 28.3023C231 27.5831 231.929 27 232.539 27C233.15 27 234 27.5831 234 28.3023Z" fill="#4D341D"/>
<path d="M230 23.9568C230 24.8468 228.488 26 227.632 26C226.775 26 225 24.8468 225 23.9568C225 23.0668 225.819 22 226.676 22C227.533 22 230 23.0668 230 23.9568Z" fill="#4D341D"/>
<path d="M223 18.812C223 19.8693 222.314 21 220.557 21C218.8 21 218 19.5275 218 18.4701C218 17.4127 218.8 17 220.557 17C222.314 17 223 17.7546 223 18.812Z" fill="#4D341D"/>
<circle cx="78" cy="59" r="24" fill="#997153"/>
<path d="M76.9566 72.276C76.9566 74.7409 74.6354 76.7391 71.7721 76.7391C68.9089 76.7391 64.5432 74.7409 64.5432 72.276C64.5432 69.8111 63.7245 66.3043 66.5877 66.3043C69.451 66.3043 76.9566 69.8111 76.9566 72.276Z" fill="#4D341D"/>
<path d="M83.2175 43.1987C83.2175 44.9276 81.6641 45.4348 78.4767 45.4348C75.2893 45.4348 74.8696 42.9711 74.8696 41.2422C74.8696 39.5133 75.2893 39.1739 78.4767 39.1739C81.6641 39.1739 83.2175 41.4698 83.2175 43.1987Z" fill="#4D341D"/>
<path d="M93.567 54.5394C93.567 56.7484 91.16 55.5393 88.9591 55.5393C86.7581 55.5393 87.5182 52.7486 87.5182 50.5395C87.5182 48.3304 89.8007 47.5217 92.0017 47.5217C94.2026 47.5217 93.567 52.3303 93.567 54.5394Z" fill="#4D341D"/>
<path d="M93.6522 69.0222C93.6522 70.5233 91.4432 72.5652 90.1693 72.5652C88.8954 72.5652 87.3914 70.5233 87.3914 69.0222C87.3914 67.5212 89.3303 66.3043 90.6042 66.3043C91.8781 66.3043 93.6522 67.5212 93.6522 69.0222Z" fill="#4D341D"/>
<path d="M85.3044 59.9534C85.3044 61.8108 82.1499 64.2174 80.3619 64.2174C78.5738 64.2174 74.8696 61.8108 74.8696 59.9534C74.8696 58.096 76.5788 55.8696 78.3668 55.8696C80.1549 55.8696 85.3044 58.096 85.3044 59.9534Z" fill="#4D341D"/>
<path d="M70.6958 49.2162C70.6958 51.4229 69.2643 53.7826 65.597 53.7826C61.9296 53.7826 60.261 50.7094 60.261 48.5028C60.261 46.2961 61.9296 45.4348 65.597 45.4348C69.2643 45.4348 70.6958 47.0096 70.6958 49.2162Z" fill="#4D341D"/>
<circle cx="133" cy="59" r="24" fill="#997153"/>
<path d="M131.957 72.276C131.957 74.7409 129.635 76.7391 126.772 76.7391C123.909 76.7391 119.543 74.7409 119.543 72.276C119.543 69.8111 118.724 66.3043 121.588 66.3043C124.451 66.3043 131.957 69.8111 131.957 72.276Z" fill="#4D341D"/>
<path d="M138.217 43.1987C138.217 44.9276 136.664 45.4348 133.477 45.4348C130.289 45.4348 129.87 42.9711 129.87 41.2422C129.87 39.5133 130.289 39.1739 133.477 39.1739C136.664 39.1739 138.217 41.4698 138.217 43.1987Z" fill="#4D341D"/>
<path d="M148.567 54.5394C148.567 56.7484 146.16 55.5393 143.959 55.5393C141.758 55.5393 142.518 52.7486 142.518 50.5395C142.518 48.3304 144.801 47.5217 147.002 47.5217C149.203 47.5217 148.567 52.3303 148.567 54.5394Z" fill="#4D341D"/>
<path d="M148.652 69.0222C148.652 70.5233 146.443 72.5652 145.169 72.5652C143.895 72.5652 142.391 70.5233 142.391 69.0222C142.391 67.5212 144.33 66.3043 145.604 66.3043C146.878 66.3043 148.652 67.5212 148.652 69.0222Z" fill="#4D341D"/>
<path d="M140.304 59.9534C140.304 61.8108 137.15 64.2174 135.362 64.2174C133.574 64.2174 129.87 61.8108 129.87 59.9534C129.87 58.096 131.579 55.8696 133.367 55.8696C135.155 55.8696 140.304 58.096 140.304 59.9534Z" fill="#4D341D"/>
<path d="M125.696 49.2162C125.696 51.4229 124.264 53.7826 120.597 53.7826C116.93 53.7826 115.261 50.7094 115.261 48.5028C115.261 46.2961 116.93 45.4348 120.597 45.4348C124.264 45.4348 125.696 47.0096 125.696 49.2162Z" fill="#4D341D"/>
</svg>
