<svg width="105" height="105" viewBox="0 0 105 105" fill="none" xmlns="http://www.w3.org/2000/svg">
<circle cx="53" cy="52" r="50" fill="#997153" fill-opacity="0.5"/>
<path d="M50.826 79.6585C50.826 84.7937 45.9903 88.9565 40.0251 88.9565C34.06 88.9565 24.9648 84.7937 24.9648 79.6585C24.9648 74.5233 23.2591 67.2174 29.2243 67.2174C35.1894 67.2174 50.826 74.5233 50.826 79.6585Z" fill="#4D341D" fill-opacity="0.5"/>
<path d="M63.8696 19.0808C63.8696 22.6826 60.6335 23.7392 53.993 23.7392C47.3526 23.7392 46.4783 18.6065 46.4783 15.0047C46.4783 11.4028 47.3526 10.6957 53.993 10.6957C60.6335 10.6957 63.8696 15.4789 63.8696 19.0808Z" fill="#4D341D" fill-opacity="0.5"/>
<path d="M85.4312 42.7071C85.4312 47.3093 80.4166 44.7903 75.8312 44.7903C71.2458 44.7903 72.8295 38.9762 72.8295 34.374C72.8295 29.7718 77.5846 28.087 82.17 28.087C86.7554 28.087 85.4312 38.1048 85.4312 42.7071Z" fill="#4D341D" fill-opacity="0.5"/>
<path d="M85.6087 72.8797C85.6087 76.0069 81.0066 80.2609 78.3526 80.2609C75.6986 80.2609 72.5652 76.0069 72.5652 72.8797C72.5652 69.7525 76.6045 67.2174 79.2585 67.2174C81.9125 67.2174 85.6087 69.7525 85.6087 72.8797Z" fill="#4D341D" fill-opacity="0.5"/>
<path d="M68.2174 53.9862C68.2174 57.8559 61.6455 62.8696 57.9204 62.8696C54.1954 62.8696 46.4783 57.8559 46.4783 53.9862C46.4783 50.1166 50.0391 45.4783 53.7641 45.4783C57.4892 45.4783 68.2174 50.1166 68.2174 53.9862Z" fill="#4D341D" fill-opacity="0.5"/>
<path d="M37.7826 31.6172C37.7826 36.2145 34.8004 41.1304 27.1601 41.1304C19.5198 41.1304 16.0435 34.7281 16.0435 30.1308C16.0435 25.5336 19.5198 23.7391 27.1601 23.7391C34.8004 23.7391 37.7826 27.02 37.7826 31.6172Z" fill="#4D341D" fill-opacity="0.5"/>
</svg>
